<?xml version="1.0" encoding="UTF-8"?> <svg xmlns="http://www.w3.org/2000/svg" id="Podcast_1" data-name="Layer 1" viewBox="0 0 836.78 207.22"><defs><style>.podcast-1{fill:#f2b538;}.podcast-2{fill:#ebebeb;}</style></defs><path class="podcast-1" d="M385.43,66.85h11.92c9.8,0,18.37,5.63,18.37,17.76s-8.57,17.76-18.37,17.76H385.43Zm11.16,28.92C402.43,95.77,408,93,408,84.61s-5.58-11.22-11.42-11.22H393V95.77Z"></path><path class="podcast-1" d="M420,66.85h7.66v35.52H420Z"></path><path class="podcast-1" d="M443.42,87.65l-12.08-20.8h8.17l7.77,13.7L455,66.85h8.17l-12.13,20.8v14.72h-7.66Z"></path><path class="podcast-1" d="M471.47,66.85h4.82L488.37,98l12.07-31.1h4.83v35.52h-3.4V72.12L490,102.37h-3.24L474.87,72.12v30.25h-3.4Z"></path><path class="podcast-1" d="M510.69,90.44V66.85h3.45v23.9c0,5.38,3.86,8.88,9.74,8.88s9.8-3.5,9.8-8.88V66.85h3.4V90.44c0,7.46-5.23,12.34-13.2,12.34S510.69,97.9,510.69,90.44Z"></path><path class="podcast-1" d="M541.58,90.85H545c.5,5.33,4,8.78,10,8.78,5.38,0,9.34-2,9.34-6.75,0-9.79-21.46-4.82-21.46-17.2,0-5.53,4.87-9.24,12-9.24,6.9,0,11.77,4.06,12.38,10.3h-3.4c-.46-4.31-3.85-7.15-9-7.15-5.33,0-8.47,2.33-8.47,6.09,0,9.59,21.56,4.06,21.56,17.2,0,6.39-5.63,9.9-12.94,9.9C547.07,102.78,542.09,98.06,541.58,90.85Z"></path><path class="podcast-1" d="M572.08,66.85h3.4v35.52h-3.4Z"></path><path class="podcast-1" d="M579.84,84.61c0-12.33,8.27-18.17,16.9-18.17,7.4,0,13.65,4.72,14.61,11.11H607.8c-.66-4.56-5.38-8-11.06-8-7.87,0-13.35,5.33-13.35,15s5.48,15,13.35,15c5.83,0,10.55-3.4,11.06-8h3.55c-.81,6.4-7.05,11.12-14.61,11.12C588.06,102.78,579.84,96.94,579.84,84.61Z"></path><path class="podcast-1" d="M616.32,66.85h3.39v35.52h-3.39Z"></path><path class="podcast-1" d="M647.42,92.27h-16.7l-4,10.1h-3.51l14.31-35.52h3l14.31,35.52h-3.55Zm-1.22-3.14-7.1-18.27-7.16,18.27Z"></path><path class="podcast-1" d="M659.44,66.85h4.06L682.93,97.3V66.85h3.41v35.52h-4.06L662.84,72v30.35h-3.4Z"></path><path class="podcast-2" d="M65.85,69.47a66.64,66.64,0,0,0,0,133.06,3.31,3.31,0,0,0,3.67-2.93,2.55,2.55,0,0,0,0-.39V72.79a3.35,3.35,0,0,0-3.35-3.36h0m70.51,0a66.64,66.64,0,0,0,0,133.06,3.32,3.32,0,0,0,3.67-2.93c0-.12,0-.25,0-.38V72.79A3.35,3.35,0,0,0,137,69.43h0m82.06,3.69V201a2,2,0,0,0,1.92,2h.07a66.64,66.64,0,0,0,1.51-133.17h0a3.32,3.32,0,0,0-3.32,3.32v0M145.4,6.26V135.11a10.44,10.44,0,0,0,0,1.37c5.43,60.59,54.33,66.05,65,66.38a1.91,1.91,0,0,0,2.06-1.76,1.21,1.21,0,0,0,0-.19V68.62C208.17,12.49,162.3,4.23,149,3h-.33a3.28,3.28,0,0,0-3.29,3.28"></path><path class="podcast-2" d="M308.82,188.19a14.42,14.42,0,1,1-14.46-14.39h0a14.43,14.43,0,0,1,14.42,14.39"></path><path class="podcast-2" d="M435.91,151.57c0,12.43-8.38,22-23.32,22H393.51v23.9h-8V130h27.08C427.53,130,435.91,139.13,435.91,151.57Zm-8.09.09c0-7.71-4.82-14.07-15.52-14.07H393.51v28.34H412.3C423,165.93,427.82,159.37,427.82,151.66Z"></path><path class="podcast-2" d="M512.64,163.71c0,19.85-15.13,34.79-34.79,34.79s-34.8-14.94-34.8-34.79,15.23-34.79,34.89-34.79S512.64,143.85,512.64,163.71Zm-61.49,0c0,15.52,11.66,27.18,26.7,27.18s26.69-11.57,26.69-27.18-11.66-27.18-26.69-27.18S451.15,148.19,451.15,163.71Z"></path><path class="podcast-2" d="M579,163.71c0,19.56-15,33.73-34.6,33.73H521.52V130h22.84C564,130,579,144.05,579,163.71Zm-8,0c0-15.33-11.47-26.12-26.5-26.12H529.52v52.24h14.94C559.49,189.83,570.87,179,571,163.71Z"></path><path class="podcast-2" d="M586.9,163.71c0-20,14.84-34.79,34.7-34.79,15.22,0,27.37,9,32,22.55H645c-4-9.06-12.73-14.94-23.52-14.94-15.23,0-26.5,11.66-26.5,27.18s11.27,27.18,26.5,27.18C632.29,190.89,641,185,645,176h8.57c-4.62,13.59-16.77,22.55-32,22.55C601.74,198.5,586.9,183.66,586.9,163.71Z"></path><path class="podcast-2" d="M701.46,177.2H670.13l-8,20.24h-8.49l27-67.46H691l27,67.46h-8.48Zm-3-7.61-12.62-32-12.63,32Z"></path><path class="podcast-2" d="M773,178.65c0,13.78-12,19.85-24.67,19.85-17.93,0-26.51-9.44-28.63-21.3h8.1c2.22,9,8.58,13.78,20.34,13.78,10.4,0,16.77-4.33,16.77-12,0-7.43-6.27-9-19.38-11.86-14.26-3.18-24-6.65-24-18.6,0-12.63,11.18-19.56,24.2-19.56,15.8,0,23.9,7.8,26.31,17.92h-8.1c-2.5-6.46-8.29-10.41-18.12-10.41s-16.29,4.53-16.29,12c0,5.59,4.24,7.71,17.83,10.79C763.45,162.84,773,165.93,773,178.65Z"></path><path class="podcast-2" d="M829.19,137.59H807.41v59.85h-8.1V137.59H777.63V130h51.56Z"></path></svg> 