<?xml version="1.0" encoding="UTF-8"?> <svg xmlns="http://www.w3.org/2000/svg" id="Blog_1" viewBox="0 0 701.52 206.06"><defs><style>.blog-1{fill:#f2b538;}.blog-2{fill:#ebebeb;}</style></defs><path class="blog-1" d="M385.77,51.69H397.7c9.79,0,18.37,5.64,18.37,17.76s-8.58,17.76-18.37,17.76H385.77Zm11.17,28.93c5.83,0,11.42-2.8,11.42-11.17s-5.59-11.21-11.42-11.21h-3.55V80.62Z"></path><path class="blog-1" d="M420.37,51.69H428V87.21h-7.67Z"></path><path class="blog-1" d="M443.77,72.5,431.69,51.69h8.17l7.76,13.7,7.77-13.7h8.17L451.43,72.5V87.21h-7.66Z"></path><path class="blog-1" d="M471.82,51.69h4.82L488.72,82.8l12.07-31.11h4.82V87.21h-3.4V57L490.34,87.21h-3.25L475.22,57V87.21h-3.4Z"></path><path class="blog-1" d="M511,75.29V51.69h3.45v23.9c0,5.38,3.85,8.88,9.74,8.88S534,81,534,75.59V51.69h3.4v23.6c0,7.46-5.22,12.33-13.19,12.33S511,82.75,511,75.29Z"></path><path class="blog-1" d="M541.93,75.69h3.4c.51,5.33,4,8.78,10,8.78,5.38,0,9.34-2,9.34-6.75,0-9.79-21.47-4.82-21.47-17.2,0-5.53,4.87-9.23,12-9.23,6.9,0,11.77,4.06,12.38,10.3h-3.4c-.46-4.32-3.86-7.16-9-7.16-5.33,0-8.48,2.34-8.48,6.09,0,9.59,21.57,4.06,21.57,17.2,0,6.4-5.63,9.9-12.94,9.9C547.41,87.62,542.44,82.9,541.93,75.69Z"></path><path class="blog-1" d="M572.42,51.69h3.4V87.21h-3.4Z"></path><path class="blog-1" d="M580.18,69.45c0-12.33,8.28-18.16,16.9-18.16,7.41,0,13.65,4.71,14.62,11.11h-3.56c-.65-4.57-5.37-8-11.06-8-7.86,0-13.34,5.33-13.34,15s5.48,15,13.34,15c5.84,0,10.56-3.4,11.06-8h3.56c-.82,6.39-7.06,11.11-14.62,11.11C588.41,87.62,580.18,81.78,580.18,69.45Z"></path><path class="blog-1" d="M616.66,51.69h3.4V87.21h-3.4Z"></path><path class="blog-1" d="M647.77,77.12h-16.7l-4,10.09h-3.5l14.31-35.52h3l14.31,35.52h-3.56ZM646.55,74,639.44,55.7,632.29,74Z"></path><path class="blog-1" d="M659.79,51.69h4.06l19.43,30.45V51.69h3.4V87.21h-4.06L663.19,56.87V87.21h-3.4Z"></path><path class="blog-2" d="M449.49,177.47c0,14.49-9.37,23.62-27.88,23.62H385.82V115.87H421c17.41,0,25.81,8.16,25.81,21.67,0,8.77-3.77,14.85-12.05,18.26C444.74,158.6,449.49,166.64,449.49,177.47Zm-29.7-52H395.93v26.9h23.61c12.91,0,17-5.23,17-13.39C436.59,130.48,432.33,125.49,419.79,125.49Zm19.6,51.25c0-9.37-4.75-15.1-18.14-15.1H395.93v29.83H421.5C434.88,191.47,439.39,185.5,439.39,176.74Z"></path><path class="blog-2" d="M512.55,191.47v9.62H461.42V115.87h10.11v75.6Z"></path><path class="blog-2" d="M602.88,158.48c0,25.08-19.11,44-44,44S515,183.56,515,158.48s19.23-43.95,44.07-43.95S602.88,133.4,602.88,158.48Zm-77.67,0c0,19.6,14.73,34.33,33.72,34.33s33.72-14.61,33.72-34.33-14.73-34.33-33.72-34.33S525.21,138.88,525.21,158.48Z"></path><path class="blog-2" d="M697.83,156.78v44.31H689v-20c-4.26,13-16.92,21.31-33,21.31-24.35,0-43.1-18.63-43.1-44s18.88-43.95,43.83-43.95c19.23,0,34.57,11.08,40.42,28.12H686.27c-5.11-11.19-16.19-18.5-29.7-18.5-19.24,0-33.48,14.61-33.48,34.57,0,19.36,13.52,34.33,33.48,34.33,16.8,0,29.58-10.71,31-27.63H652.55v-8.64Z"></path><path class="blog-2" d="M65.84,69.53a66.65,66.65,0,0,0,0,133.07,3.33,3.33,0,0,0,3.67-2.93c0-.13,0-.26,0-.39V72.85a3.36,3.36,0,0,0-3.36-3.35h0m70.52,0a66.64,66.64,0,0,0,0,133.06,3.32,3.32,0,0,0,3.66-2.93,2.55,2.55,0,0,0,0-.39V72.85A3.35,3.35,0,0,0,137,69.5h0m82.06,3.68v127.9a1.94,1.94,0,0,0,1.91,2,.11.11,0,0,0,.08,0A66.64,66.64,0,0,0,222.58,69.9h0a3.32,3.32,0,0,0-3.32,3.32v0M145.39,6.32V135.18a7.72,7.72,0,0,0,0,1.36c5.42,60.6,54.32,66.06,65,66.39a1.92,1.92,0,0,0,2.06-1.77,1.2,1.2,0,0,0,0-.19V68.68C208.16,12.55,162.28,4.29,149,3.08h-.33a3.28,3.28,0,0,0-3.28,3.28"></path><path class="blog-2" d="M308.8,188.25a14.42,14.42,0,1,1-14.45-14.38h0a14.42,14.42,0,0,1,14.42,14.38"></path></svg> 