<?xml version="1.0" encoding="UTF-8"?> <svg xmlns="http://www.w3.org/2000/svg" id="a" viewBox="0 0 1037.89 204"><path d="M64.48,68.36C27.63,70.49-.52,102.08,1.61,138.93c1.95,33.88,28.99,60.92,62.87,62.87,1.83.2,3.47-1.11,3.68-2.94.01-.13.02-.26.02-.39v-126.78c0-1.86-1.51-3.37-3.37-3.37h0M135.53,68.33c-36.85,2.13-65,33.72-62.87,70.57,1.95,33.88,28.99,60.92,62.87,62.87,1.83.2,3.47-1.11,3.68-2.94.01-.13.02-.26.02-.39v-126.75c0-1.86-1.51-3.37-3.37-3.37h0M218.15,72.02v128.26c-.02,1.08.84,1.98,1.92,2,.02,0,.05,0,.07,0,36.9-1.03,65.97-31.77,64.95-68.66-.97-34.87-28.59-63.13-63.43-64.89h0c-1.84,0-3.33,1.49-3.33,3.33,0,.01,0,.02,0,.04M144.25,4.97v129.22c-.04.46-.04.91,0,1.37,5.44,60.77,54.48,66.24,65.2,66.57,1.06.08,1.98-.71,2.07-1.77,0-.06,0-.13,0-.19V67.51C207.2,11.22,161.19,2.94,147.88,1.72h-.33c-1.82,0-3.29,1.47-3.29,3.29" fill="#ebebeb" stroke-width="0"></path><path d="M308.13,187.42c.02,7.99-6.44,14.48-14.42,14.5-7.99.02-14.48-6.44-14.5-14.42-.02-7.99,6.44-14.48,14.42-14.5.01,0,.02,0,.04,0,7.97,0,14.44,6.45,14.46,14.42" fill="#ebebeb" stroke-width="0"></path><path d="M434.64,111.24h-14.31l-1.81-16.51c-.48-4.58-3.72-7.73-8.21-7.73h-12.98v24.23h-14.41V44.45h28.15c14.22,0,22.52,8.78,22.52,20.99,0,6.68-3.24,11.26-8.4,13.93,4.3,2.96,7.06,7.63,7.63,13.45l1.81,18.41ZM397.33,74.7h12.98c6.58,0,9.45-4.39,9.45-9.25s-2.86-9.07-9.45-9.07h-12.98v18.32Z" fill="#57d694" stroke-width="0"></path><path d="M441.6,44.45h45.42v12.31h-31.11v14.12h24.81v12.4h-24.81v15.55h32.15v12.4h-46.47V44.45Z" fill="#57d694" stroke-width="0"></path><path d="M494.27,44.45h14.41v54.38h30.34v12.4h-44.75V44.45Z" fill="#57d694" stroke-width="0"></path><path d="M544.92,44.45h45.42v12.31h-31.11v14.12h24.81v12.4h-24.81v15.55h32.15v12.4h-46.47V44.45Z" fill="#57d694" stroke-width="0"></path><path d="M639.96,96.64h-24.14l-5.25,14.6h-14.88l25.38-66.79h13.64l25.38,66.79h-14.88l-5.25-14.6ZM635.66,84.62l-7.73-21.66-7.82,21.66h15.55Z" fill="#57d694" stroke-width="0"></path><path d="M661.61,88.53h13.74c.57,6.77,5.06,11.07,12.12,11.07,6.39,0,10.68-2.67,10.68-7.73,0-13.07-34.63-3.05-34.63-29.29,0-11.07,9.54-18.89,23.09-18.89,14.41,0,24.14,8.3,24.52,20.99h-13.65c-.48-5.25-4.48-8.68-10.88-8.68-5.63,0-9.16,2.67-9.16,6.58,0,13.93,35.11,2.67,35.11,29.1,0,12.5-10.11,20.32-25.09,20.32s-25.28-9.25-25.86-23.47Z" fill="#57d694" stroke-width="0"></path><path d="M719.81,44.45h45.42v12.31h-31.11v14.12h24.81v12.4h-24.81v15.55h32.15v12.4h-46.47V44.45Z" fill="#57d694" stroke-width="0"></path><path d="M796.99,44.45h27.48c14.22,0,22.52,8.78,22.52,21.08s-8.3,21.09-22.52,21.09h-13.07v24.62h-14.41V44.45ZM823.61,74.7c6.68,0,9.54-4.29,9.54-9.16s-2.86-9.16-9.54-9.16h-12.21v18.32h12.21Z" fill="#57d694" stroke-width="0"></path><path d="M855.38,44.45h14.41v54.38h30.34v12.4h-44.75V44.45Z" fill="#57d694" stroke-width="0"></path><path d="M950.31,96.64h-24.14l-5.25,14.6h-14.88l25.38-66.79h13.64l25.38,66.79h-14.88l-5.25-14.6ZM946.02,84.62l-7.73-21.66-7.82,21.66h15.55Z" fill="#57d694" stroke-width="0"></path><path d="M976.93,44.45h15.27l26.81,44.18v-44.18h14.31v66.79h-15.27l-26.81-44.18v44.18h-14.31V44.45Z" fill="#57d694" stroke-width="0"></path><path d="M380.92,166.88c0-22.8,15.46-34.16,31.77-34.16,14.89,0,26.81,8.87,28.53,21.18h-7.06c-1.62-8.87-10.69-15.27-21.47-15.27-14.5,0-25,9.92-25,28.24s10.49,28.24,25,28.24c11.74,0,21.95-6.2,21.95-16.89,0-3.43-2.29-5.72-6.01-5.72h-15.74v-5.92h16.13c4.48,0,12.12,3.43,12.12,11.64v22.04h-6.11v-12.02c-3.34,7.54-12.02,12.78-22.23,12.78-16.41,0-31.87-11.35-31.87-34.16Z" fill="#57d694" stroke-width="0"></path><path d="M453.81,133.49h40.74v5.92h-34.35v23.28h28.15v5.92h-28.15v25.76h35.4v5.92h-41.79v-66.79Z" fill="#57d694" stroke-width="0"></path><path d="M507.81,133.49h7.63l36.54,57.25v-57.25h6.39v66.79h-7.63l-36.54-57.06v57.06h-6.39v-66.79Z" fill="#57d694" stroke-width="0"></path><path d="M571.55,133.49h40.74v5.92h-34.35v23.28h28.15v5.92h-28.15v25.76h35.4v5.92h-41.79v-66.79Z" fill="#57d694" stroke-width="0"></path><path d="M669.15,184.25l.95,16.03h-6.01l-.95-16.03c-.38-6.97-4.87-12.02-11.64-12.02h-19.56v28.05h-6.39v-66.79h24.52c12.88,0,20.9,7.63,20.9,19.18,0,7.54-4.39,12.98-10.97,16.03,5.44,2.86,8.78,8.49,9.16,15.55ZM631.94,166.31h18.32c10.21,0,13.93-6.58,13.93-13.64s-3.72-13.26-13.93-13.26h-18.32v26.9Z" fill="#57d694" stroke-width="0"></path><path d="M728.02,181.29h-31.39l-7.44,18.99h-6.58l26.91-66.79h5.63l26.9,66.79h-6.68l-7.35-18.99ZM725.73,175.37l-13.36-34.35-13.45,34.35h26.81Z" fill="#57d694" stroke-width="0"></path><path d="M759.12,139.4h-21.85v-5.92h50v5.92h-21.75v60.87h-6.39v-60.87Z" fill="#57d694" stroke-width="0"></path><path d="M788.31,166.88c0-19.66,13.74-34.16,32.35-34.16s32.44,14.5,32.44,34.16-13.83,34.16-32.44,34.16-32.35-14.5-32.35-34.16ZM846.41,166.88c0-16.22-10.97-28.24-25.76-28.24s-25.67,12.02-25.67,28.24,10.97,28.24,25.67,28.24,25.76-12.02,25.76-28.24Z" fill="#57d694" stroke-width="0"></path><path d="M908.72,184.25l.95,16.03h-6.01l-.95-16.03c-.38-6.97-4.87-12.02-11.64-12.02h-19.56v28.05h-6.39v-66.79h24.52c12.88,0,20.9,7.63,20.9,19.18,0,7.54-4.39,12.98-10.97,16.03,5.44,2.86,8.78,8.49,9.16,15.55ZM871.51,166.31h18.32c10.21,0,13.93-6.58,13.93-13.64s-3.72-13.26-13.93-13.26h-18.32v26.9Z" fill="#57d694" stroke-width="0"></path></svg> 