<?xml version="1.0" encoding="UTF-8"?> <svg xmlns="http://www.w3.org/2000/svg" viewBox="0 0 42 42" xml:space="preserve" id="footer_ig"><style type="text/css">.footer_ig_svg-1 { fill: #383838; }</style><g> <path class="footer_ig_svg-1" d="M21,4.2c5.5,0,6.1,0,8.3,0.1c2,0.1,3.1,0.4,3.8,0.7c0.9,0.3,1.7,0.9,2.4,1.5C36.2,7.2,36.7,8,37,8.9 c0.3,0.7,0.6,1.8,0.7,3.8c0.1,2.2,0.1,2.8,0.1,8.3s0,6.1-0.1,8.3c-0.1,2-0.4,3.1-0.7,3.8c-0.7,1.8-2.1,3.2-3.9,3.9 c-0.7,0.3-1.8,0.6-3.8,0.7c-2.2,0.1-2.8,0.1-8.3,0.1s-6.1,0-8.3-0.1c-2-0.1-3.1-0.4-3.8-0.7c-0.9-0.3-1.7-0.9-2.4-1.5 C5.8,34.8,5.3,34,5,33.1c-0.3-0.7-0.6-1.8-0.7-3.8c-0.1-2.2-0.1-2.8-0.1-8.3s0-6.1,0.1-8.3c0.1-2,0.4-3.1,0.7-3.8 C5.3,8,5.9,7.2,6.5,6.5C7.2,5.8,8,5.3,8.9,5c0.7-0.3,1.8-0.6,3.8-0.7C14.9,4.3,15.5,4.2,21,4.2 M21,0.5c-5.6,0-6.3,0-8.4,0.1 s-3.7,0.4-5,1C6.2,2.1,5,2.9,4,4C3,5,2.2,6.3,1.6,7.6c-0.5,1.3-0.9,2.8-1,5s0,2.8,0,8.4s0,6.3,0.1,8.4s0.4,3.7,1,5 C2.1,35.8,2.9,37,4,38c1,1,2.3,1.8,3.6,2.4c1.3,0.5,2.8,0.9,5,1s2.9,0.1,8.4,0.1s6.3,0,8.4-0.1s3.7-0.4,5-1c2.7-1.1,4.9-3.2,6-6 c0.5-1.3,0.9-2.8,1-5s0.1-2.9,0.1-8.4s0-6.3-0.1-8.4s-0.4-3.7-1-5C39.9,6.2,39.1,5,38,4c-1-1-2.3-1.8-3.6-2.4c-1.3-0.5-2.8-0.9-5-1 S26.6,0.6,21,0.5L21,0.5z"></path> <path class="footer_ig_svg-1" d="M21,10.5c-5.8,0-10.5,4.7-10.5,10.5S15.2,31.5,21,31.5S31.5,26.8,31.5,21l0,0C31.5,15.2,26.8,10.5,21,10.5 L21,10.5z M21,27.8c-3.8,0-6.8-3.1-6.8-6.8s3.1-6.8,6.8-6.8s6.8,3.1,6.8,6.8l0,0C27.8,24.8,24.8,27.8,21,27.8z"></path> <circle class="footer_ig_svg-1" cx="31.9" cy="10.1" r="2.5"></circle> </g> </svg> 