<?xml version="1.0" encoding="UTF-8"?> <svg xmlns="http://www.w3.org/2000/svg" xmlns:xlink="http://www.w3.org/1999/xlink" x="0px" y="0px" id="footer_tiktok" viewBox="0 0 42 42" style="enable-background:new 0 0 42 42;" xml:space="preserve"> <style type="text/css">.st0{fill:#383838;}</style> <g><path class="st0" d="M33.2,9c-2.2-1.4-3.7-3.7-4.2-6.3c-0.1-0.6-0.2-1.1-0.2-1.7H22l0,27.6c-0.1,3.1-2.7,5.6-5.8,5.6 c-1,0-1.9-0.2-2.7-0.7c-1.8-1-3.1-2.9-3.1-5.1c0-3.2,2.6-5.8,5.8-5.8c0.6,0,1.2,0.1,1.7,0.3v-5.4v-1.6c-0.6-0.1-1.1-0.1-1.7-0.1 c-7,0-12.7,5.7-12.7,12.7c0,4.3,2.1,8.1,5.4,10.4c2.1,1.4,4.6,2.3,7.3,2.3c7,0,12.7-5.7,12.7-12.7v-14c2.7,1.9,6,3.1,9.6,3.1v-5.3 v-1.5C36.5,10.6,34.7,10,33.2,9z"></path></g> </svg> 