<?xml version="1.0" encoding="UTF-8"?> <svg xmlns="http://www.w3.org/2000/svg" version="1.1" viewBox="0 0 200 200"><defs><style> .cls-1 { fill-rule: evenodd; } .cls-1, .cls-2 { fill: none; stroke: #fff; stroke-linecap: round; stroke-linejoin: round; stroke-width: 3px; } </style></defs><g><g id="Layer_1"><g><path class="cls-1" d="M164.2,90.4c-3.1-.9-6,1.2-6.4,4.5l-4.2,34.3c-1.8-.9-3.8-1.6-5.9-1.9-9.7-1.2-18.6,5.9-19.8,15.9-1.2,10,5.7,19,15.4,20.2,7.1.9,13.8-2.7,17.3-8.6,1.7-2.9,2.6-8.3,3-11.6,1.3-10.6,3.9-31.5,3.9-31.5,22.7,2.8,19.7,16.6,16,24.3-1.4,3-.9,3.6,1.6,1.4,31.5-27.6-5.9-42.4-20.9-46.9Z"></path><path class="cls-2" d="M22.7,157.2c10.1,0,19.3-7.1,19.9-16.9l.2-69.1,51.9-10.1v49.1c-3.6-3.3-4.5-5.4-9.8-5.4-11.1,0-20.1,8.8-20.1,19.7s9,19.8,20.1,19.8,18.5-7.3,19.9-16.9l.6-77.8v-13.3c-.1,0-73.3,14.5-73.3,14.5l.3,72.1c-3.6-3.3-4.5-5.4-9.8-5.4-11.1,0-20.1,8.8-20.1,19.8s9,19.7,20.1,19.7h0Z"></path></g></g></g></svg> 