<?xml version="1.0" encoding="UTF-8"?> <svg xmlns="http://www.w3.org/2000/svg" version="1.1" viewBox="0 0 200 200"><defs><style> .cls-1 { fill: none; fill-rule: evenodd; stroke: #fff; stroke-linecap: round; stroke-linejoin: round; stroke-width: 3px; } </style></defs><g><g id="Layer_1"><g><polygon class="cls-1" points="72 75.2 72 75.2 119.8 85.9 156.8 54.6 176.5 66.5 177.5 5 123.8 34.8 143.5 46.7 112.4 68.2 67.3 58.2 2.5 122.9 13.4 133.8 72 75.2"></polygon><polygon class="cls-1" points="67.9 156.8 42.6 139.4 17.5 156.8 17.5 195 67.9 195 67.9 156.8"></polygon><polygon class="cls-1" points="132.7 135.2 107.9 117.7 83.4 135.2 83.4 195 132.7 195 132.7 135.2"></polygon><polygon class="cls-1" points="197.5 102.7 172 85.3 146.7 102.7 146.7 195 197.5 195 197.5 102.7"></polygon></g></g></g></svg> 