<?xml version="1.0" encoding="UTF-8"?> <svg xmlns="http://www.w3.org/2000/svg" version="1.1" viewBox="0 0 200 200"><defs><style> .cls-1 { fill-rule: evenodd; } .cls-1, .cls-2 { fill: none; stroke: #fff; stroke-linecap: round; stroke-linejoin: round; stroke-width: 3px; } </style></defs><g><g id="Layer_1"><g><path class="cls-1" d="M115.5,119c-2.5,2.8-6.2,4.5-10.9,5v7.2h-6.1v-7.2c-7.9-.8-12.8-5.4-14.7-13.8l9.4-2.4c.9,5.3,3.7,7.9,8.6,7.9s4-.6,5-1.7c1.1-1.1,1.6-2.5,1.6-4.1s-.5-2.9-1.6-3.8c-1.1-.9-3.5-1.9-7.2-3.3-3.3-1.2-5.9-2.3-7.8-3.4-1.9-1.1-3.4-2.7-4.6-4.7-1.2-2-1.8-4.4-1.8-7.1s1.1-6.7,3.1-9.6c2.1-2.8,5.4-4.6,9.9-5.2v-5.6h6.1v5.6c6.8.8,11.2,4.6,13.2,11.5l-8.4,3.4c-1.6-4.7-4.1-7.1-7.6-7.1s-3.1.5-4.1,1.6c-1,1-1.6,2.3-1.6,3.8s.5,2.7,1.5,3.5c1,.8,3.1,1.8,6.4,3,3.6,1.3,6.4,2.6,8.5,3.7,2,1.2,3.7,2.8,4.9,4.8,1.2,2.1,1.8,4.5,1.8,7.2,0,4.2-1.3,7.8-3.8,10.6Z"></path><path class="cls-2" d="M79.2,62.3H2.3s0,75.5,0,75.5h76.6c-8.3-5-15-12.8-18.6-22.6-7.3-20.2,1.1-42.2,18.9-52.8ZM34.9,108.3c-4.5,1.6-9.6-.7-11.2-5.3s.7-9.6,5.3-11.2c4.5-1.6,9.6.7,11.2,5.3,1.6,4.5-.7,9.6-5.3,11.2Z"></path><path class="cls-2" d="M124.3,62.3c8.4,5,15.2,12.9,18.8,22.8,7.3,20.1-1,42-18.5,52.6h73s0-75.5,0-75.5h-73.4ZM174.8,106.8c-4.5,1.6-9.6-.7-11.2-5.3-1.6-4.5.7-9.6,5.3-11.2,4.5-1.6,9.6.7,11.2,5.3,1.6,4.5-.7,9.6-5.3,11.2Z"></path></g></g></g></svg> 