<?xml version="1.0" encoding="UTF-8"?> <svg xmlns="http://www.w3.org/2000/svg" viewBox="0 0 171 48.5"><defs><style> .instagram_icon-1 { fill: #282828; } </style></defs><title>instagram</title><path id="Logo" class="instagram_icon-1" d="M133.1,22.1a16,16,0,0,1-1.3,5.7c-1.3,2.6-4,3.4-5.1-.3a20.58,20.58,0,0,1-.2-8.3c.5-2.9,1.7-5.1,3.8-4.9s3,2.9,2.8,7.8m-35,15.1c0,4.1-.7,7.6-2,8.6-1.9,1.5-4.6.4-4-2.6.5-2.6,2.7-5.3,6-8.5v2.5m-.6-15.1a16.54,16.54,0,0,1-1.3,5.7c-1.3,2.6-4,3.4-5.1-.3a18.16,18.16,0,0,1-.2-8c.5-2.7,1.7-5.2,3.8-5.2s3.1,2.3,2.8,7.8m-20.3,0a14.53,14.53,0,0,1-1.3,5.7c-1.3,2.6-4,3.4-5.1-.3a20,20,0,0,1-.2-8.4c.5-2.9,1.8-5,3.8-4.8s3.1,2.9,2.8,7.8m93,2.7c-.5,0-.7.5-.9,1.4-.7,3.1-1.4,3.8-2.3,3.8s-1.9-1.5-2.1-4.6a85.27,85.27,0,0,1,.1-11.2c0-.9-.2-1.8-2.6-2.7-1-.4-2.5-.9-3.3.9A45.79,45.79,0,0,0,156,23.2c0,.1-.1.1-.1-.1a85.11,85.11,0,0,1-.4-8.8,2.58,2.58,0,0,0-1.3-2.5c-.7-.4-2.8-1.2-3.6-.3s-1.4,2.8-2.2,5.3c-.7,2-1.1,3.3-1.1,3.3V12.7a1.08,1.08,0,0,0-.7-1.1,14.7,14.7,0,0,0-2.7-.6c-.7,0-.9.4-.9,1,0,.1-.1,7.1-.1,11.9v.7c-.4,2.2-1.7,5.3-3.2,5.3s-2.1-1.3-2.1-7.1c0-3.4.1-4.9.2-7.3,0-1.4.1-2.5.1-2.8,0-.8-1.3-1.1-1.9-1.3a10,10,0,0,0-1.6-.2.94.94,0,0,0-1,1V13a6.34,6.34,0,0,0-2.8-2.3,5.47,5.47,0,0,0-6.2,2.3,13.71,13.71,0,0,0-2.5,7.2,19.76,19.76,0,0,0,.3,6.5c-.5,2.2-1.5,3.1-2.5,3.1-1.5,0-2.6-2.4-2.5-6.7a34.59,34.59,0,0,1,1.3-7.6,2.35,2.35,0,0,0-.5-2.4,3.28,3.28,0,0,0-3-.5,39.1,39.1,0,0,1-3.9.7,6.59,6.59,0,0,0,.2-.9c.4-3.1-3-2.8-4.1-1.8a3.72,3.72,0,0,0-1.2,2.5,2.86,2.86,0,0,0,1.3,2.9,27.93,27.93,0,0,1-3.2,7.9c-.7,1.2-1.3,2.1-2,3.1V25.9c0-5.1.1-9.1.1-10.5s.1-2.5.1-2.7c0-.5-.3-.8-1-1a11.7,11.7,0,0,0-2-.5c-.9-.1-1.5.4-1.5,1V13A6.34,6.34,0,0,0,95,10.7,5.42,5.42,0,0,0,88.8,13a14.43,14.43,0,0,0-2.5,7.1,24.18,24.18,0,0,0,.1,6.1c-.3,1.7-1.3,3.5-2.5,3.5-1.4,0-2.3-1.3-2.3-7.1,0-3.4.1-4.9.2-7.3,0-1.4.1-2.5.1-2.8,0-.8-1.3-1.1-1.9-1.3a5,5,0,0,0-1.6-.2.89.89,0,0,0-.9.9v.8a6.34,6.34,0,0,0-2.8-2.3,5.47,5.47,0,0,0-6.2,2.3A14.32,14.32,0,0,0,66,19.8c-.1,1.1-.2,2.1-.2,3.1-.4,2.7-2.4,5.9-4,5.9-1,0-1.9-1.8-1.9-5.8,0-5.2.3-12.7.4-13.4h2.4c1,0,1.9,0,3.3-.1.7,0,1.3-2.5.6-2.8a26.86,26.86,0,0,0-3.5-.3c-.8,0-2.8-.2-2.8-.2s.2-4.9.2-5.5c0-.4-.5-.7-.8-.8a20.16,20.16,0,0,0-2.3-.7c-1.2-.2-1.7,0-1.8,1-.2,1.5-.2,5.8-.2,5.8-.8,0-3.7-.2-4.6-.2s-1.6,3.4-.5,3.4c1.3,0,3.4.1,4.9.1,0,0-.1,7.6-.1,9.9v.7a11.78,11.78,0,0,1-3.6,6.4c.6-2.7-.6-4.8-2.8-6.5-.8-.6-2.4-1.9-4.2-3.2a12,12,0,0,0,2-3.1c.7-1.5.7-3.1-.9-3.5a4.79,4.79,0,0,0-5.5,3.4,3.87,3.87,0,0,0,.8,4c.1.1.2.2.2.3-.6,1.2-1.4,2.7-2.1,3.9-1.9,3.3-3.4,6-4.5,6-.9,0-.9-2.7-.9-5.2,0-2.2.2-5.4.3-8.8a2.37,2.37,0,0,0-1.5-2.3,7.71,7.71,0,0,0-2.5-1c-1,0-4.1.1-7,8.4-.4,1-1.1,2.9-1.1,2.9l.1-10a.62.62,0,0,0-.4-.6,6.71,6.71,0,0,0-2.9-.8c-.6,0-.8.3-.8.8l-.1,15.6a28.25,28.25,0,0,0,.1,3.2,3.75,3.75,0,0,0,.5,1.4,1.46,1.46,0,0,0,.9.6c.4.1,2.7.4,2.8-.5a35.45,35.45,0,0,1,1.3-6.4c1.9-6.5,4.3-9.7,5.4-10.9.2-.2.4-.2.4.1-.1,1.4-.2,5-.3,8.1-.3,8.1,1.2,9.7,3.3,9.7,1.6,0,3.9-1.6,6.3-5.7,1.5-2.5,3-5,4.1-6.8.7.7,1.6,1.4,2.4,2.2,1.9,1.8,2.6,3.6,2.1,5.2-.3,1.3-1.5,2.6-3.7,1.3-.6-.4-.9-.7-1.5-1.1a1.29,1.29,0,0,0-1.2-.1,3.89,3.89,0,0,0-1.5,2.3c-.3.9.7,1.4,1.7,1.9a13.39,13.39,0,0,0,3.8.8c4.5.2,8-2.2,10.5-8.1.4,5.1,2.3,8,5.6,8,2.2,0,4.4-2.8,5.4-5.6a13.43,13.43,0,0,0,1.2,3c2.5,4,7.5,3.2,9.9-.3a7.43,7.43,0,0,0,.9-1.4,4.79,4.79,0,0,0,4.4,4.4c1.7,0,3.4-.8,4.6-3.5a2.18,2.18,0,0,0,.5.8c2.5,4,7.5,3.2,9.9-.3a1.38,1.38,0,0,1,.3-.4l.1,2.1s-1.4,1.3-2.3,2.1c-3.8,3.5-6.7,6.1-6.9,9.2-.3,3.9,2.9,5.4,5.3,5.6a6.67,6.67,0,0,0,6.1-3.2c1.2-1.7,2-5.5,1.9-9.2,0-1.5-.1-3.4-.1-5.4a36.35,36.35,0,0,0,4.2-5.8,50.35,50.35,0,0,0,4-8.5s1.4,0,2.9-.1c.5,0,.6.1.5.4s-1.9,7.3-.3,11.9a5.68,5.68,0,0,0,5.1,4.2c1.8,0,3.4-1.3,4.3-3.3l.3.6c2.5,4,7.4,3.1,9.9-.3a10.24,10.24,0,0,0,.9-1.4,4.86,4.86,0,0,0,4.6,4.4c1.6,0,3-.6,4.2-3.4a7.16,7.16,0,0,0,.3,2.6c.1.2.5.4.8.6a6.89,6.89,0,0,0,3.4.2c.4-.1.7-.4.7-1.1.1-2,0-5.4.7-7.9a27.19,27.19,0,0,1,2.4-6.7c.3-.5.5-.5.5-.1,0,1,.1,3.8.5,7.7a17.2,17.2,0,0,0,1,5,2.77,2.77,0,0,0,2.8,1.6c.5,0,1.7-.2,1.6-1.1a27,27,0,0,1,1-7.5,40.9,40.9,0,0,1,2.2-6.1c.2-.3.2-.1.2,0-.1,1.9-.3,8,.5,11.3,1,4.5,4,5,5.1,5,2.2,0,4-1.7,4.6-6.1.3-.2.1-1-.6-1M8.8.2C5.3,1.6,1.5,5.8.2,11c-1.5,6.6,4.9,9.4,5.4,8.5.6-1.1-1.2-1.4-1.5-4.9C3.7,10.2,5.7,5.2,8.3,3.1c.5-.4.5.2.5,1.2,0,1.9-.1,18.5-.1,21.9,0,4.7-.2,6.2-.5,7.6s-.9,2.5-.5,2.9,2.5-.6,3.7-2.3a12.75,12.75,0,0,0,2-7c.1-3.1.1-8.1.1-10.9V1.8C13.4.7,10.3-.4,8.8.2"></path></svg> 