<?xml version="1.0" encoding="UTF-8"?> <svg xmlns="http://www.w3.org/2000/svg" xmlns:xlink="http://www.w3.org/1999/xlink" version="1.1" id="Layer_1" x="0px" y="0px" viewBox="0 0 240 170" style="enable-background:new 0 0 240 170;" xml:space="preserve"> <style type="text/css"> .st0{fill:#323232;} </style> <path class="st0" d="M231.2,28.8c-2.7-10-10.5-18-20.5-20.6C192.5,3.3,120,3.3,120,3.3s-72.5,0-90.6,4.9 c-10,2.7-17.8,10.6-20.5,20.6C4,47,4,85,4,85s0,38,4.8,56.2c2.7,10,10.5,18,20.5,20.6c18.1,4.9,90.6,4.9,90.6,4.9s72.5,0,90.6-4.9 c10-2.7,17.8-10.6,20.5-20.6C236,123,236,85,236,85S236,47,231.2,28.8z M96.3,119.5v-69L156.9,85L96.3,119.5z"></path> </svg> 