<?xml version="1.0" encoding="UTF-8"?> <svg xmlns="http://www.w3.org/2000/svg" xmlns:xlink="http://www.w3.org/1999/xlink" version="1.1" id="Layer_1" x="0px" y="0px" viewBox="0 0 167.1 192" style="enable-background:new 0 0 167.1 192;" xml:space="preserve"> <style type="text/css"> .st0{fill:#323232;} </style> <path class="st0" d="M127.9,89.2c-0.8-0.4-1.6-0.8-2.5-1.1c-1.4-26.6-16-41.9-40.4-42c-0.1,0-0.2,0-0.3,0C70.1,46,58,52.3,50.5,63.6 l13.4,9.2c5.6-8.5,14.4-10.3,20.8-10.3c0.1,0,0.1,0,0.2,0c8,0.1,14.1,2.4,18,6.9c2.9,3.3,4.8,7.9,5.7,13.7 c-7.1-1.2-14.8-1.6-23.1-1.1C62.4,83.4,47.5,97,48.5,115.8c0.5,9.5,5.3,17.8,13.4,23.1c6.9,4.5,15.7,6.8,24.9,6.2 c12.1-0.7,21.7-5.3,28.3-13.8c5-6.4,8.2-14.8,9.6-25.3c5.8,3.5,10.1,8.1,12.4,13.6c4,9.4,4.3,24.8-8.3,37.4 c-11,11-24.3,15.8-44.3,15.9c-22.2-0.2-39-7.3-50-21.2C24.3,138.9,19,120.1,18.8,96c0.2-24.1,5.5-42.9,15.7-55.9 c10.9-13.9,27.7-21,50-21.2c22.4,0.2,39.5,7.3,50.9,21.3c5.6,6.8,9.8,15.5,12.5,25.5l15.7-4.2c-3.4-12.4-8.6-23-15.8-31.8 C133.3,11.8,112,2.6,84.6,2.4h-0.1c-27.4,0.2-48.4,9.4-62.5,27.4C9.4,45.8,2.9,68,2.6,95.9l0,0.1l0,0.1c0.2,27.9,6.7,50.1,19.3,66.1 c14.1,18,35.2,27.2,62.5,27.4h0.1c24.3-0.2,41.5-6.5,55.6-20.7c18.5-18.5,17.9-41.6,11.8-55.8C147.7,102.9,139.3,94.6,127.9,89.2z M85.9,128.7c-10.2,0.6-20.7-4-21.3-13.8c-0.4-7.3,5.2-15.3,21.9-16.3c1.9-0.1,3.8-0.2,5.6-0.2c6.1,0,11.8,0.6,16.9,1.7 C107.2,124.2,95.9,128.1,85.9,128.7z"></path> </svg> 